<?xml version="1.0" encoding="utf-8"?>
<!-- Generator: Adobe Illustrator 21.1.0, SVG Export Plug-In . SVG Version: 6.00 Build 0)  -->
<svg version="1.1" id="Layer_1" xmlns="http://www.w3.org/2000/svg" xmlns:xlink="http://www.w3.org/1999/xlink" x="0px" y="0px"
	 viewBox="0 0 600 400" style="enable-background:new 0 0 600 400;" xml:space="preserve">
<path d="M188.9,142.4c0,11.5-3.3,21.7-9.8,30.5c-5.7,7.8-13.2,13.5-22.5,17.3c-8.5,3.5-18.7,5.2-30.5,5.2
	c-14.7,0-29.1-3.4-43.2-10.1l-1.3-2.3c2-8,2.9-19.5,2.9-34.3l1-1h6.7l0.9,1v2.4c0,3.9,0.4,9.1,1.3,15.5c2.5,4.5,7,8.3,13.5,11.5
	c6.8,3.4,13.8,5,21.2,5c13.8,0,23.4-4.8,28.7-14.5c2.7-5,4.1-10.1,4.1-15.4c0-8.9-3.7-15.3-11.2-19.2c-3.7-1.9-9.7-3.5-17.9-4.7
	c-18.6-2.9-30.9-6.5-36.8-10.8c-8.9-6.6-13.3-16.7-13.3-30.5c0-14.3,4.8-25.7,14.5-34.3c10.2-8.9,24.4-13.4,42.5-13.4
	c16.3,0,29.5,2.6,39.6,7.9l0.7,2.5c-1.7,8.3-2.7,18.3-3,30l-1.2,1h-6.6l-1-1c-0.2-8.4-0.6-13.8-1-16.3c-2.2-3.3-5.9-6.1-11.3-8.4
	c-5.7-2.4-11.7-3.6-17.9-3.6c-9.4,0-16.8,2.5-22.2,7.4c-5.1,4.7-7.6,10.7-7.6,18.1c0,8,2.9,13.9,8.7,17.7c3.8,2.4,12.7,4.8,26.7,7
	c1.5,0.2,5.6,0.9,12.3,2.1c4.1,0.7,7.9,1.7,11.4,3c7.1,2.7,12.4,6.7,15.9,12.2C186.9,126.2,188.9,133.6,188.9,142.4z M269.7,80l-1,1
	c-1.5,0-2.8,0.5-3.9,1.6c-1.4,1.4-3.4,4.8-5.9,10.2c-2.9,6.7-6.6,15.1-11.1,25.2c-5.5,12.3-9.8,22-12.9,29.1c-3,6.7-5.7,11.4-8,14.1
	c-3.8,4.3-8.5,6.5-14,6.5c-3.1,0-6.4-0.8-9.7-2.5c0.8-3.6,1.6-7.9,2.4-13.1l2.7-0.5c2.2,3,4.9,4.5,8.3,4.5c4.7,0,8.7-3.3,11.8-10
	c0.5-1,1.3-2.9,2.5-5.7l-20.6-52.4c-1.2-2.9-2.1-4.7-2.7-5.4c-1-0.9-2.9-1.5-5.8-1.7l-1-1v-3.4l1.2-1c3,0.1,8.1,0.2,15.4,0.2
	c6.5,0,12.2-0.1,17.2-0.2l1.2,1V80l-1.2,1c-2.9,0.4-4.7,0.7-5.4,1.1c-0.7,0.4-1,0.9-1,1.6c0,0.8,0.2,1.6,0.5,2.6
	c0.6,1.7,1.6,4.4,2.9,8.1l8.7,22.8l8.8-21.8c1.3-3.1,2.4-6.3,3.4-9.5c0.2-0.7,0.3-1.4,0.3-2.2c0-1.5-2.2-2.4-6.6-2.7l-1-1v-3.4
	l1.2-1c2.7,0.1,6.7,0.2,11.8,0.2c2.9,0,6.3-0.1,10.4-0.2l1.3,1V80z M322.6,114.2c0,7.3-2.9,13-8.8,17c-5.1,3.6-11.5,5.3-19.1,5.3
	c-5.7,0-12-1.3-18.9-3.8l-1-1.4c0.4-4.1,0.8-9.7,1-16.7l1-1.2h3.4l1.2,1.2c0.2,5.1,0.4,8.1,0.5,8.9c3.5,4.3,8.2,6.4,14,6.4
	c2.9,0,5.5-0.9,7.8-2.8c2.2-1.8,3.4-4.2,3.4-7.2c0-3.3-1.5-5.4-4.4-6.5c-1.7-0.6-4.5-1.3-8.2-2.1c-13-2.7-19.5-8.5-19.5-17.6
	c0-6.8,2.7-12,8.1-15.6c4.6-3.1,10.5-4.7,17.6-4.7c6.6,0,12.3,1.2,17,3.5l0.8,1.5c-0.5,2.1-0.9,6.9-1.2,14.4l-1.2,1h-3.1l-1.2-1
	c-0.2-3.8-0.5-6.5-0.8-8.1c-2.7-3.1-6.5-4.7-11.5-4.7c-2.8,0-5.2,0.8-7.2,2.5c-2,1.6-3,3.8-3,6.3c0,3,1.6,5,4.7,6
	c2.5,0.8,5.5,1.5,9,2.2C316.1,99.5,322.6,105.2,322.6,114.2z M370.3,125.2l-9.4,9.3c-2.2,0.7-4.3,1-6.5,1c-4.3,0-8-1.3-11-3.8
	c-3.4-2.8-5-6.6-5-11.3c0-2.4,0-6,0.1-10.6c0-4.7,0-7.4,0-8.1V87l-6.9,0.1l-1.3-0.9v-1.7l8.2-5.1v-8.8c0-2.7-0.2-6.5-0.6-11.4
	c3.2-1,5.9-1.9,8.1-2.7c2-0.8,4.8-2.1,8.6-3.9l2.3,1.8c-0.4,4.5-0.9,12.5-1.6,23.9h1.2c4.7,0,8.7-0.1,11.9-0.4l1.3,1.3l-0.9,6.7
	l-1.2,1h-12.3v20.1c0,6.1,0.1,9.9,0.2,11.5c0.3,3.6,2.5,5.4,6.4,5.4c2.5,0,4.9-0.3,7-0.9L370.3,125.2z M432.5,99.4c0,1,0,2-0.1,2.8
	l-1,1.3c-5.5,1.5-12.9,2.2-22,2.2c-1.6,0-3.9,0-6.8,0.1c-3.1,0.1-5.4,0.1-6.9,0.1c0.5,6.2,2.3,11.1,5.3,14.8c3.4,4,7.9,6,13.6,6
	c4,0,8.6-1.3,13.9-3.9l2.3,2.3l-2.7,5.6c-6.3,3.9-13,5.9-20.2,5.9c-9.6,0-17-2.7-22.2-8c-5.2-5.3-7.8-12.7-7.8-22.2
	c0-11.9,3.9-20.5,11.8-25.8C396.3,76.2,403,74,410,74c6.4,0,11.8,2.1,16.1,6.4C430.4,84.8,432.5,91.1,432.5,99.4z M414.7,98.8v-0.9
	c0-11-3.1-16.4-9.4-16.4c-6.8,0-10.2,5.4-10.2,16.3v1.2c2.4,0.3,6.4,0.4,11.9,0.4C409.5,99.3,412,99.1,414.7,98.8z M546.3,133
	l-1.2,1.2c-2.8-0.3-7.1-0.4-13-0.4c-5,0-8.7,0.1-11.2,0.4l-1.4-1.8c0.7-10.5,1-17.9,1-22v-6.5c0-5.4-0.2-9.3-0.5-11.4
	c-0.8-5-3.9-7.4-9.3-7.4c-6.3,0-9.4,2.7-9.4,8.1v19l0.2,9.4c0.1,2.5,0.2,4,0.5,4.5c0.3,0.5,0.7,1,1.3,1.5c1.1,0.3,3.1,0.7,6.1,1.3
	l1.2,1v3.2l-1.3,1.2c-5.8-0.3-10.9-0.4-15.4-0.4c-5.7,0-11.2,0.1-16.4,0.4l-1.3-1.2v-3.1l1-1.3c2.1-0.3,3.9-0.7,5.4-1.2
	c0.6-0.1,0.9-0.7,1.2-1.8c0.3-1.4,0.4-3.5,0.4-6.4V98.9c0-4.6-0.3-7.6-0.9-9c-1.5-3.3-4.4-4.9-8.7-4.9c-6.4,0-9.5,3.1-9.5,9.4V109
	c0,3.1,0.1,6.4,0.2,9.8c0.1,4,0.3,6.4,0.5,7.2c0.2,0.8,0.5,1.3,1.1,1.5c1.8,0.8,3.7,1.2,5.7,1.2l1,1v3.2l-1,1.2
	c-4.1-0.3-9.4-0.4-16-0.4c-7.5,0-13.2,0.1-17.1,0.4l-1.2-1v-3.2l1-1.2c3.6-0.1,6.1-0.6,7.3-1.3c0.9-0.5,1.4-7,1.4-19.5v-8.5
	c0-7.9-0.3-12.4-0.8-13.5c-0.5-0.9-1.2-1.4-2-1.6c-0.9-0.1-2.7-0.4-5.6-0.8l-1-1v-2.9l1-1.2c7.6-0.7,15.5-2.4,23.8-5l2.1,1.2
	l-0.1,8.3l9.7-7.5c2.2-1,4.7-1.5,7.5-1.5c8.8,0,14.7,3.2,17.7,9.6l10.4-8.2c2.3-1,4.9-1.6,7.9-1.6c8.2,0,14,3,17.2,8.9
	c1.5,2.7,2.2,6.6,2.2,11.7c0,1.2-0.1,3-0.2,5.4c-0.1,2.4-0.2,4.2-0.2,5.4v7.9c0,6,0.1,9.8,0.3,11.5c0.2,1.7,0.6,2.7,1,2.9
	c1.1,0.6,3.2,1,6.2,1.3l1.2,1.2V133z M254.6,332.4l-1,1c-0.5,0-1.8,0-4-0.1c-9.6-0.3-15.5-0.5-17.9-0.5c-3.6,0-9.2,0.2-17,0.6
	c-0.3-1.7-1.6-4.5-4-8.4l-26-43.4l-11.6-17.7c-1.5-2.2-3.5-4.3-6.2-6.4l1.2-3.6c1.6,0.1,2.8,0.1,3.6,0.1c6.8,0,12.2-1.1,16.1-3.2
	c3.6-2,6.8-5.4,9.8-10.3c3-4.9,4.5-10.7,4.5-17.5c0-11.8-4.4-19.8-13.2-23.9c-4.2-2-10.3-2.9-18.3-2.9c-3.5,0-6.8,0.3-10.1,0.8
	c-0.7,6.8-1,18.5-1,35v54.8c0,16.6,0.5,27.4,1.4,32.5c0.3,2,1.5,3.3,3.6,3.9c1,0.3,5.1,0.6,12.3,1l1,1v7l-0.9,1
	c-7-0.4-17.7-0.6-32.3-0.6c-15,0-25.8,0.2-32.3,0.6l-1-0.9v-7.1l1-1c7.1-0.4,11.2-0.8,12.3-1c2-0.6,3.2-1.9,3.6-3.9
	c0.9-5,1.4-15.9,1.4-32.5v-55.4c0-16.6-0.5-27.4-1.4-32.5c-0.4-2-1.5-3.3-3.6-3.9c-1-0.3-5.1-0.6-12.3-1l-1-1v-7.1l1-0.9
	c6.8,0.4,17.6,0.6,32.3,0.6c8.5,0,15.4-0.1,20.7-0.3c10.5-0.4,18.4-0.6,23.7-0.6c12.1,0,21,1.1,26.6,3.2c7.6,2.9,12.7,7.9,15.3,14.9
	c1.3,3.4,1.9,7.5,1.9,12.2c0,19-10.7,32.5-32.1,40.4c3.5,5.9,7.2,11.8,11.1,17.8l16.1,24.8c9.5,14.7,15.8,23,19,25
	c1.6,1,3.8,1.6,6.7,1.6l1,1V332.4z M320.9,274.9l-1,1.2c-6.4-0.2-10.4-0.3-12-0.3c-1.3,0-3.4,0-6.1,0.1c-2.7,0.1-4.8,0.1-6.3,0.1
	l-1-0.9c0.3-3,0.5-5.7,0.5-8c-1.7,1.4-5,4.4-9.8,9c-2.8,1-5.8,1.6-9,1.6c-12.5,0-18.8-6-18.8-17.9c0-1.2,0-3,0.1-5.3
	c0.1-2.4,0.1-4.2,0.1-5.3v-7.6c0-7.9-0.3-12.4-0.8-13.5c-0.4-0.7-1-1.2-1.9-1.5s-2.8-0.6-5.7-0.8l-1.2-1.2v-2.9l1-1.2
	c8.2-0.7,16.4-2.4,24.4-5l2.1,1.2c-0.6,6.9-0.8,13.2-0.8,18.9v12.8c0,5,0.2,8.7,0.5,11.1c0.6,4.4,3.4,6.6,8.3,6.6
	c3.1,0,5.8-1,8.1-2.9c2.2-2,3.4-5.2,3.4-9.7v-11.7c0-7.8-0.3-12.3-0.8-13.5c-0.4-0.7-1-1.2-2-1.6c-0.6-0.2-2.4-0.5-5.7-0.7l-1.2-1
	v-3l1.2-1.2c8.1-0.7,16.2-2.4,24.3-5l2.1,1.3c-0.6,6.3-0.8,12.5-0.8,18.8v18.9c0,8.5,0.2,13.1,0.6,14c0.1,0.3,0.5,0.6,0.9,1
	c0.5,0.4,2.6,0.9,6.3,1.4l1.2,1V274.9z M366.9,275.1l-1,1c-3.8-0.3-9.6-0.4-17.2-0.4c-7.6,0-13.3,0.1-17.2,0.4l-1.2-1v-3.4l1.2-1
	c3.6-0.1,6-0.6,7.2-1.4c0.6-0.3,0.9-1.3,0.9-2.7c0.3-5.1,0.4-14.3,0.4-27.6v-20.2c0-8.6-0.1-15.4-0.4-20.5c-0.1-1.5-0.4-2.4-0.9-2.7
	c-0.8-0.5-3.2-0.9-7.1-1.4l-1-1.2v-2.9l1-1.2c8-0.8,16.1-2.5,24.3-5.1l2.1,1.2c0,1-0.1,3.2-0.2,6.5c-0.4,9.8-0.6,20.5-0.6,32V239
	c0,13.3,0.1,22.5,0.4,27.6c0.1,1.5,0.4,2.4,0.9,2.7c1.4,0.8,3.8,1.3,7.2,1.4l1.2,1V275.1z M428,241.3c0,1,0,2-0.1,2.8l-1,1.3
	c-5.5,1.5-12.9,2.2-22,2.2c-1.6,0-3.9,0-6.8,0.1c-3.1,0.1-5.4,0.1-6.9,0.1c0.5,6.2,2.3,11.1,5.3,14.8c3.4,4,7.9,6,13.6,6
	c4,0,8.6-1.3,13.9-3.9l2.3,2.3l-2.7,5.6c-6.3,3.9-13,5.9-20.2,5.9c-9.6,0-17-2.7-22.2-8c-5.2-5.3-7.8-12.7-7.8-22.2
	c0-11.9,3.9-20.5,11.8-25.8c6.5-4.3,13.2-6.5,20.2-6.5c6.4,0,11.8,2.1,16.1,6.4C425.9,226.7,428,233,428,241.3z M410.2,240.7v-0.9
	c0-11-3.1-16.4-9.4-16.4c-6.8,0-10.2,5.4-10.2,16.3v1.2c2.4,0.3,6.4,0.4,11.9,0.4C405,241.2,407.5,241,410.2,240.7z M494.8,256.1
	c-1,8.9-1.5,15.3-1.5,19.2l-0.8,0.8l-10.9-0.2c-7.1-0.1-13.3-0.2-18.9-0.2c-6.7,0-14.9,0.1-24.7,0.4l-1.2-1V271
	c1.3-1.4,5-6.1,11.1-14.2c5.4-7.1,13.1-17.7,23.2-31.8h-7.4c-9.1,0-14,0.3-14.8,0.9c-0.4,0.3-0.6,1.1-0.8,2.5c-0.2,1.4-0.5,3.7-1,7
	l-1.2,1h-3.2l-1.2-1l0.5-12.8c0-0.6,0-2-0.1-4l1-1c5.9,0.2,13.1,0.4,21.6,0.4c6.6,0.1,15.8-0.1,27.8-0.4l1,1.2v4.3
	c-4.8,6.2-11.7,15.6-21,28.1l-12.7,17.8c7.5,0.1,13.8,0.1,18.9-0.2c4.8-0.3,7.4-0.6,7.8-0.8c0.3-0.3,1.3-4.2,2.7-11.7l1.2-0.9h3.2
	L494.8,256.1z"/>
</svg>
